<svg width="45" height="45" viewBox="0 0 45 45" fill="none" xmlns="http://www.w3.org/2000/svg">
<circle cx="22.5" cy="22.5" r="22.5" fill="#3185C8"/>
<path d="M16.9897 29.6364C15.6137 29.6364 14.4383 29.1561 13.4633 28.1956C12.4884 27.2351 12.0006 26.0611 12 24.6737C12 23.4845 12.3553 22.4249 13.066 21.4949C13.7766 20.5649 14.7065 19.9703 15.8557 19.7111C16.2337 18.3084 16.9897 17.1726 18.1237 16.3036C19.2577 15.4345 20.5429 15 21.9793 15C23.7484 15 25.2492 15.6214 26.4818 16.8643C27.7144 18.1072 28.3304 19.6202 28.3298 21.4034C29.3731 21.5254 30.2389 21.9791 30.9272 22.7646C31.6154 23.5501 31.9593 24.4685 31.9587 25.5199C31.9587 26.6633 31.5619 27.6354 30.7684 28.4362C29.9749 29.2369 29.0108 29.637 27.8762 29.6364H16.9897Z" fill="white"/>
<path d="M17.21 22.9C17.21 22.488 17.302 22.12 17.486 21.796C17.674 21.468 17.928 21.214 18.248 21.034C18.572 20.85 18.934 20.758 19.334 20.758C19.802 20.758 20.212 20.878 20.564 21.118C20.916 21.358 21.162 21.69 21.302 22.114H20.336C20.24 21.914 20.104 21.764 19.928 21.664C19.756 21.564 19.556 21.514 19.328 21.514C19.084 21.514 18.866 21.572 18.674 21.688C18.486 21.8 18.338 21.96 18.23 22.168C18.126 22.376 18.074 22.62 18.074 22.9C18.074 23.176 18.126 23.42 18.23 23.632C18.338 23.84 18.486 24.002 18.674 24.118C18.866 24.23 19.084 24.286 19.328 24.286C19.556 24.286 19.756 24.236 19.928 24.136C20.104 24.032 20.24 23.88 20.336 23.68H21.302C21.162 24.108 20.916 24.442 20.564 24.682C20.216 24.918 19.806 25.036 19.334 25.036C18.934 25.036 18.572 24.946 18.248 24.766C17.928 24.582 17.674 24.328 17.486 24.004C17.302 23.68 17.21 23.312 17.21 22.9ZM23.5435 25.042C23.1515 25.042 22.7915 24.95 22.4635 24.766C22.1355 24.582 21.8755 24.328 21.6835 24.004C21.4915 23.676 21.3955 23.306 21.3955 22.894C21.3955 22.486 21.4915 22.12 21.6835 21.796C21.8755 21.468 22.1355 21.212 22.4635 21.028C22.7915 20.844 23.1515 20.752 23.5435 20.752C23.9395 20.752 24.2995 20.844 24.6235 21.028C24.9515 21.212 25.2095 21.468 25.3975 21.796C25.5895 22.12 25.6855 22.486 25.6855 22.894C25.6855 23.306 25.5895 23.676 25.3975 24.004C25.2095 24.328 24.9515 24.582 24.6235 24.766C24.2955 24.95 23.9355 25.042 23.5435 25.042ZM23.5435 24.292C23.7955 24.292 24.0175 24.236 24.2095 24.124C24.4015 24.008 24.5515 23.844 24.6595 23.632C24.7675 23.42 24.8215 23.174 24.8215 22.894C24.8215 22.614 24.7675 22.37 24.6595 22.162C24.5515 21.95 24.4015 21.788 24.2095 21.676C24.0175 21.564 23.7955 21.508 23.5435 21.508C23.2915 21.508 23.0675 21.564 22.8715 21.676C22.6795 21.788 22.5295 21.95 22.4215 22.162C22.3135 22.37 22.2595 22.614 22.2595 22.894C22.2595 23.174 22.3135 23.42 22.4215 23.632C22.5295 23.844 22.6795 24.008 22.8715 24.124C23.0675 24.236 23.2915 24.292 23.5435 24.292ZM25.8256 25.4312C26.056 25.2392 26.2396 25.0796 26.3764 24.9524C26.5132 24.8228 26.6272 24.6884 26.7184 24.5492C26.8096 24.41 26.8552 24.2732 26.8552 24.1388C26.8552 24.0164 26.8264 23.9204 26.7688 23.8508C26.7112 23.7812 26.6224 23.7464 26.5024 23.7464C26.3824 23.7464 26.29 23.7872 26.2252 23.8688C26.1604 23.948 26.1268 24.0572 26.1244 24.1964H25.6348C25.6444 23.9084 25.7296 23.69 25.8904 23.5412C26.0536 23.3924 26.26 23.318 26.5096 23.318C26.7832 23.318 26.9932 23.3912 27.1396 23.5376C27.286 23.6816 27.3592 23.8724 27.3592 24.11C27.3592 24.2972 27.3088 24.476 27.208 24.6464C27.1072 24.8168 26.992 24.9656 26.8624 25.0928C26.7328 25.2176 26.5636 25.3688 26.3548 25.5464H27.4168V25.964H25.6384V25.5896L25.8256 25.4312Z" fill="#3185C8"/>
</svg>
