<svg width="160" height="32" viewBox="0 0 160 32" fill="none" xmlns="http://www.w3.org/2000/svg">
<path d="M14.0979 5.8541C14.6966 4.01148 17.3034 4.01148 17.9021 5.8541L19.1432 9.67376C19.4109 10.4978 20.1789 11.0557 21.0453 11.0557H25.0615C26.999 11.0557 27.8045 13.535 26.2371 14.6738L22.9879 17.0344C22.2869 17.5437 21.9936 18.4465 22.2614 19.2705L23.5024 23.0902C24.1012 24.9328 21.9922 26.465 20.4248 25.3262L17.1756 22.9656C16.4746 22.4563 15.5254 22.4563 14.8244 22.9656L11.5752 25.3262C10.0078 26.465 7.89885 24.9328 8.49755 23.0902L9.73863 19.2705C10.0064 18.4465 9.71306 17.5437 9.01209 17.0344L5.76289 14.6738C4.19546 13.535 5.00102 11.0557 6.93846 11.0557H10.9547C11.8211 11.0557 12.5891 10.4978 12.8568 9.67376L14.0979 5.8541Z" fill="#FFB666"/>
<path d="M142.098 5.8541C142.697 4.01148 145.303 4.01148 145.902 5.8541L147.143 9.67376C147.411 10.4978 148.179 11.0557 149.045 11.0557H153.062C154.999 11.0557 155.805 13.535 154.237 14.6738L150.988 17.0344C150.287 17.5437 149.994 18.4465 150.261 19.2705L151.502 23.0902C152.101 24.9328 149.992 26.465 148.425 25.3262L145.176 22.9656C144.475 22.4563 143.525 22.4563 142.824 22.9656L139.575 25.3262C138.008 26.465 135.899 24.9328 136.498 23.0902L137.739 19.2705C138.006 18.4465 137.713 17.5437 137.012 17.0344L133.763 14.6738C132.195 13.535 133.001 11.0557 134.938 11.0557H138.955C139.821 11.0557 140.589 10.4978 140.857 9.67376L142.098 5.8541Z" fill="white"/>
<path d="M110.098 5.8541C110.697 4.01148 113.303 4.01148 113.902 5.8541L115.143 9.67376C115.411 10.4978 116.179 11.0557 117.045 11.0557H121.062C122.999 11.0557 123.805 13.535 122.237 14.6738L118.988 17.0344C118.287 17.5437 117.994 18.4465 118.261 19.2705L119.502 23.0902C120.101 24.9328 117.992 26.465 116.425 25.3262L113.176 22.9656C112.475 22.4563 111.525 22.4563 110.824 22.9656L107.575 25.3262C106.008 26.465 103.899 24.9328 104.498 23.0902L105.739 19.2705C106.006 18.4465 105.713 17.5437 105.012 17.0344L101.763 14.6738C100.195 13.535 101.001 11.0557 102.938 11.0557H106.955C107.821 11.0557 108.589 10.4978 108.857 9.67376L110.098 5.8541Z" fill="#FFB666"/>
<path d="M78.0979 5.8541C78.6966 4.01148 81.3034 4.01148 81.9021 5.8541L83.1432 9.67376C83.4109 10.4978 84.1789 11.0557 85.0453 11.0557H89.0615C90.999 11.0557 91.8045 13.535 90.2371 14.6738L86.9879 17.0344C86.2869 17.5437 85.9936 18.4465 86.2614 19.2705L87.5024 23.0902C88.1012 24.9328 85.9922 26.465 84.4248 25.3262L81.1756 22.9656C80.4746 22.4563 79.5254 22.4563 78.8244 22.9656L75.5752 25.3262C74.0078 26.465 71.8988 24.9328 72.4975 23.0902L73.7386 19.2705C74.0064 18.4465 73.7131 17.5437 73.0121 17.0344L69.7629 14.6738C68.1955 13.535 69.001 11.0557 70.9385 11.0557H74.9547C75.8211 11.0557 76.5891 10.4978 76.8568 9.67376L78.0979 5.8541Z" fill="#FFB666"/>
<path d="M46.0979 5.8541C46.6966 4.01148 49.3034 4.01148 49.9021 5.8541L51.1432 9.67376C51.4109 10.4978 52.1789 11.0557 53.0453 11.0557H57.0615C58.999 11.0557 59.8045 13.535 58.2371 14.6738L54.9879 17.0344C54.2869 17.5437 53.9936 18.4465 54.2614 19.2705L55.5024 23.0902C56.1012 24.9328 53.9922 26.465 52.4248 25.3262L49.1756 22.9656C48.4746 22.4563 47.5254 22.4563 46.8244 22.9656L43.5752 25.3262C42.0078 26.465 39.8988 24.9328 40.4975 23.0902L41.7386 19.2705C42.0064 18.4465 41.7131 17.5437 41.0121 17.0344L37.7629 14.6738C36.1955 13.535 37.001 11.0557 38.9385 11.0557H42.9547C43.8211 11.0557 44.5891 10.4978 44.8568 9.67376L46.0979 5.8541Z" fill="#FFB666"/>
</svg>
