<svg width="45" height="45" viewBox="0 0 45 45" fill="none" xmlns="http://www.w3.org/2000/svg">
<circle cx="22.5" cy="22.5" r="22.5" fill="#3185C8"/>
<path d="M24.6966 14.5783C24.8091 14.4653 24.8723 14.312 24.8723 14.1522C24.8723 13.9923 24.8091 13.8391 24.6966 13.726L22.1517 11.1692C22.0385 11.0594 21.887 10.9986 21.7297 11C21.5724 11.0014 21.4219 11.0648 21.3107 11.1765C21.1994 11.2883 21.1364 11.4395 21.135 11.5975C21.1336 11.7555 21.1941 11.9078 21.3034 12.0215L22.4997 13.2233C20.6553 13.3263 18.8871 13.9971 17.4353 15.1445C15.9834 16.2919 14.9182 17.8604 14.3842 19.637C13.8502 21.4136 13.8734 23.3123 14.4505 25.0752C15.0276 26.8382 16.1308 28.38 17.6101 29.4913C17.7374 29.5873 17.8974 29.6284 18.055 29.6058C18.2125 29.5832 18.3546 29.4987 18.4501 29.3708C18.5455 29.2429 18.5865 29.0822 18.564 28.9239C18.5415 28.7657 18.4574 28.6229 18.3301 28.527C17.0126 27.5376 16.0402 26.1551 15.5519 24.5771C15.0636 22.9991 15.0843 21.3064 15.6111 19.741C16.138 18.1756 17.1439 16.8176 18.4852 15.8611C19.8265 14.9046 21.4345 14.3987 23.0792 14.4156C23.1088 14.4156 23.138 14.4136 23.1668 14.4095L21.3034 16.2829C21.1941 16.3965 21.1336 16.5488 21.135 16.7068C21.1364 16.8649 21.1994 17.016 21.3107 17.1278C21.4219 17.2395 21.5724 17.3029 21.7297 17.3043C21.887 17.3057 22.0385 17.2449 22.1517 17.1351L24.6966 14.5783ZM21.3034 29.9217C21.1909 30.0347 21.1277 30.188 21.1277 30.3478C21.1277 30.5077 21.1909 30.6609 21.3034 30.774L23.8483 33.3308C23.9615 33.4406 24.113 33.5013 24.2703 33.5C24.4276 33.4986 24.5781 33.4352 24.6893 33.3235C24.8006 33.2117 24.8636 33.0605 24.865 32.9025C24.8664 32.7445 24.8059 32.5922 24.6966 32.4785L23.5003 31.2767C25.3447 31.1737 27.1129 30.5029 28.5647 29.3555C30.0166 28.2081 31.0818 26.6396 31.6158 24.863C32.1498 23.0864 32.1266 21.1877 31.5495 19.4248C30.9724 17.6618 29.8692 16.12 28.3899 15.0087C28.3268 14.9612 28.2551 14.9266 28.1788 14.907C28.1025 14.8873 28.023 14.883 27.945 14.8942C27.8671 14.9054 27.792 14.9319 27.7242 14.9722C27.6564 15.0125 27.5972 15.0659 27.5499 15.1292C27.5027 15.1925 27.4683 15.2646 27.4487 15.3413C27.4292 15.4179 27.4248 15.4977 27.436 15.5761C27.4471 15.6545 27.4735 15.7298 27.5137 15.7979C27.5538 15.8661 27.6069 15.9256 27.6699 15.973C27.9651 16.1957 28.2467 16.4408 28.5146 16.7084C29.611 17.8089 30.3562 19.2126 30.6551 20.7404C30.954 22.2682 30.7931 23.8508 30.1929 25.2863C29.5927 26.7218 28.5804 27.9451 27.2851 28.8002C25.9899 29.6552 24.4705 30.1031 22.9208 30.0868L22.832 30.0917L24.6966 28.2183C24.7539 28.1627 24.7996 28.0962 24.8311 28.0227C24.8625 27.9492 24.8791 27.8701 24.8798 27.79C24.8805 27.71 24.8653 27.6306 24.8351 27.5566C24.8049 27.4825 24.7604 27.4152 24.7041 27.3586C24.6477 27.302 24.5807 27.2573 24.507 27.2269C24.4333 27.1966 24.3543 27.1814 24.2746 27.1821C24.195 27.1828 24.1162 27.1994 24.0431 27.231C23.9699 27.2626 23.9037 27.3085 23.8483 27.3661L21.3034 29.9217Z" fill="white"/>
<path d="M19.1191 23.219C19.0423 22.7568 19.0448 22.2925 19.1195 21.8435C19.5839 21.8548 20.0016 21.632 20.164 21.24C20.3263 20.8481 20.1885 20.3952 19.8521 20.0747C20.1168 19.7045 20.4433 19.3744 20.8245 19.1019C21.1449 19.4384 21.598 19.5764 21.99 19.414C22.3821 19.2516 22.6049 18.8337 22.5935 18.3691C23.0557 18.2923 23.52 18.2948 23.969 18.3695C23.9577 18.8339 24.1805 19.2516 24.5725 19.414C24.9644 19.5763 25.4173 19.4385 25.7378 19.1021C26.108 19.3668 26.4381 19.6933 26.7107 20.0745C26.374 20.3949 26.2361 20.848 26.3985 21.24C26.5609 21.6321 26.9788 21.8549 27.4434 21.8435C27.5202 22.3057 27.5177 22.77 27.443 23.219C26.9786 23.2077 26.5608 23.4305 26.3985 23.8224C26.2362 24.2144 26.374 24.6673 26.7104 24.9877C26.4457 25.358 26.1191 25.6881 25.738 25.9606C25.4176 25.624 24.9645 25.4861 24.5725 25.6485C24.1804 25.8109 23.9576 26.2288 23.969 26.6934C23.5068 26.7702 23.0424 26.7677 22.5935 26.693C22.6048 26.2286 22.382 25.8108 21.99 25.6485C21.5981 25.4862 21.1452 25.624 20.8247 25.9604C20.4545 25.6957 20.1244 25.3691 19.8519 24.988C20.1884 24.6676 20.3264 24.2145 20.164 23.8224C20.0016 23.4304 19.5837 23.2076 19.1191 23.219ZM23.2813 23.7965C23.98 23.7965 24.5465 23.23 24.5465 22.5313C24.5465 21.8324 23.98 21.266 23.2813 21.266C22.5824 21.266 22.016 21.8324 22.016 22.5313C22.016 23.23 22.5824 23.7965 23.2813 23.7965Z" fill="white"/>
</svg>
