<svg width="64" height="64" viewBox="0 0 64 64" fill="none" xmlns="http://www.w3.org/2000/svg">
<circle cx="32" cy="32" r="32" fill="white"/>
<path d="M40.6318 23.8268C40.7281 23.7167 40.8018 23.5887 40.8486 23.4502C40.8954 23.3116 40.9145 23.1652 40.9047 23.0193C40.8949 22.8733 40.8565 22.7308 40.7917 22.5997C40.7268 22.4686 40.6367 22.3516 40.5266 22.2553C40.4165 22.1591 40.2886 22.0854 40.15 22.0386C40.0114 21.9918 39.865 21.9727 39.7191 21.9825C39.5732 21.9923 39.4306 22.0307 39.2995 22.0955C39.1684 22.1604 39.0514 22.2505 38.9551 22.3605L33.2659 28.8623L28.4373 22.4251C28.3336 22.2869 28.1991 22.1746 28.0445 22.0973C27.8899 22.02 27.7194 21.9798 27.5466 21.9798H23.0932C22.8864 21.9798 22.6837 22.0374 22.5078 22.1461C22.3319 22.2548 22.1898 22.4103 22.0973 22.5952C22.0049 22.7801 21.9657 22.9872 21.9843 23.1931C22.0029 23.399 22.0784 23.5957 22.2025 23.7611L29.3691 33.3155L23.3682 40.1734C23.2719 40.2835 23.1982 40.4115 23.1514 40.55C23.1046 40.6886 23.0855 40.835 23.0953 40.9809C23.1051 41.1269 23.1435 41.2694 23.2083 41.4005C23.2732 41.5316 23.3633 41.6486 23.4734 41.7449C23.5835 41.8411 23.7114 41.9148 23.85 41.9616C23.9886 42.0084 24.135 42.0275 24.2809 42.0177C24.4268 42.0079 24.5694 41.9695 24.7005 41.9047C24.8316 41.8398 24.9486 41.7497 25.0449 41.6397L30.7341 35.1368L35.5627 41.574C35.6664 41.7122 35.8009 41.8245 35.9555 41.9018C36.1101 41.979 36.2806 42.0193 36.4534 42.0193H40.9068C41.1136 42.0193 41.3163 41.9617 41.4922 41.853C41.6681 41.7443 41.8102 41.5888 41.9027 41.4039C41.9951 41.2189 42.0343 41.0119 42.0157 40.806C41.9971 40.6001 41.9216 40.4034 41.7975 40.238L34.6309 30.6836L40.6318 23.8268Z" fill="black"/>
</svg>
