<svg width="64" height="64" viewBox="0 0 64 64" fill="none" xmlns="http://www.w3.org/2000/svg">
<circle cx="32" cy="32" r="32" fill="white"/>
<path fill-rule="evenodd" clip-rule="evenodd" d="M39.0169 24.1175C39.264 24.0135 39.5345 23.9776 39.8002 24.0136C40.0659 24.0496 40.317 24.1561 40.5276 24.3222C40.7381 24.4882 40.9003 24.7076 40.9973 24.9575C41.0942 25.2075 41.1224 25.4789 41.0789 25.7435L38.8109 39.5005C38.5909 40.8275 37.1349 41.5885 35.9179 40.9275C34.8999 40.3745 33.3879 39.5225 32.0279 38.6335C31.3479 38.1885 29.2649 36.7635 29.5209 35.7495C29.7409 34.8825 33.2409 31.6245 35.2409 29.6875C36.0259 28.9265 35.6679 28.4875 34.7409 29.1875C32.4389 30.9255 28.7429 33.5685 27.5209 34.3125C26.4429 34.9685 25.8809 35.0805 25.2089 34.9685C23.9829 34.7645 22.8459 34.4485 21.9179 34.0635C20.6639 33.5435 20.7249 31.8195 21.9169 31.3175L39.0169 24.1175Z" fill="black"/>
</svg>
