<svg width="45" height="45" viewBox="0 0 45 45" fill="none" xmlns="http://www.w3.org/2000/svg">
<circle cx="22.5" cy="22.5" r="22.5" fill="#3185C8"/>
<path d="M29.3063 24.5386H21.8617L24.0368 22.3839C24.8232 22.7762 25.6897 22.9854 26.5701 22.9954C27.4563 22.9977 28.326 22.7575 29.0831 22.3012C31.3854 20.9205 32.619 17.7244 32.3832 13.7514C32.3721 13.5632 32.2916 13.3856 32.1571 13.2523C32.0225 13.119 31.8432 13.0393 31.6533 13.0283C27.6427 12.7947 24.4163 14.0168 23.0215 16.2975C22.114 17.783 22.0907 19.5772 22.9381 21.2974L21.5414 22.681L20.3562 21.507C20.9386 20.233 20.8969 18.9109 20.2213 17.8071C19.1663 16.0773 16.7475 15.1552 13.7502 15.3292C13.5606 15.3404 13.3817 15.4201 13.2473 15.5532C13.113 15.6862 13.0326 15.8635 13.0213 16.0513C12.8446 19.0195 13.7764 21.4156 15.5235 22.4618C16.108 22.8154 16.7799 23.0018 17.4648 23.0002C18.0861 22.9941 18.6989 22.8568 19.2623 22.5973L20.4436 23.7694L19.6671 24.5386H15.3294C15.1235 24.5386 14.926 24.6197 14.7803 24.7639C14.6347 24.9082 14.5529 25.1038 14.5529 25.3079C14.5529 25.5119 14.6347 25.7075 14.7803 25.8518C14.926 25.996 15.1235 26.0771 15.3294 26.0771H16.2602L17.5424 31.7952C17.6172 32.1378 17.8087 32.4446 18.0848 32.6639C18.3608 32.8833 18.7046 33.0019 19.0585 33H25.5782C25.9319 33.0016 26.2756 32.8828 26.5515 32.6635C26.8275 32.4442 27.0191 32.1377 27.0943 31.7952L28.3764 26.0771H29.3063C29.5122 26.0771 29.7097 25.996 29.8554 25.8518C30.001 25.7075 30.0828 25.5119 30.0828 25.3079C30.0828 25.1038 30.001 24.9082 29.8554 24.7639C29.7097 24.6197 29.5122 24.5386 29.3063 24.5386Z" fill="white"/>
<path d="M23.9097 29.794C23.9097 30.002 23.8557 30.198 23.7477 30.382C23.6437 30.562 23.4877 30.712 23.2797 30.832C23.0757 30.948 22.8337 31.016 22.5537 31.036V31.522H22.1697V31.03C21.7697 30.994 21.4477 30.874 21.2037 30.67C20.9597 30.462 20.8337 30.182 20.8257 29.83H21.7257C21.7497 30.118 21.8977 30.292 22.1697 30.352V29.206C21.8817 29.134 21.6497 29.062 21.4737 28.99C21.2977 28.918 21.1457 28.802 21.0177 28.642C20.8897 28.482 20.8257 28.264 20.8257 27.988C20.8257 27.64 20.9497 27.356 21.1977 27.136C21.4497 26.916 21.7737 26.79 22.1697 26.758V26.272H22.5537V26.758C22.9377 26.79 23.2437 26.906 23.4717 27.106C23.7037 27.306 23.8337 27.582 23.8617 27.934H22.9557C22.9437 27.818 22.9017 27.718 22.8297 27.634C22.7617 27.546 22.6697 27.484 22.5537 27.448V28.582C22.8537 28.658 23.0897 28.732 23.2617 28.804C23.4377 28.872 23.5897 28.986 23.7177 29.146C23.8457 29.302 23.9097 29.518 23.9097 29.794ZM21.7017 27.946C21.7017 28.078 21.7417 28.186 21.8217 28.27C21.9017 28.35 22.0177 28.416 22.1697 28.468V27.43C22.0257 27.45 21.9117 27.504 21.8277 27.592C21.7437 27.68 21.7017 27.798 21.7017 27.946ZM22.5537 30.364C22.7057 30.336 22.8237 30.274 22.9077 30.178C22.9957 30.082 23.0397 29.966 23.0397 29.83C23.0397 29.698 22.9977 29.592 22.9137 29.512C22.8297 29.432 22.7097 29.366 22.5537 29.314V30.364Z" fill="#3185C8"/>
</svg>
