<svg width="45" height="45" viewBox="0 0 45 45" fill="none" xmlns="http://www.w3.org/2000/svg">
<circle cx="22.5" cy="22.5" r="22.5" fill="#3185C8"/>
<path d="M31.9715 14.829L31.8926 14L31.103 14.2632C29.7499 14.7333 28.305 14.8776 26.8857 14.6843C25.3942 14.4528 23.8676 14.6585 22.4906 15.2764C21.7606 15.5872 21.12 16.0757 20.627 16.6974C20.134 17.3191 19.8044 18.0542 19.6681 18.8358C19.4913 19.8456 19.5798 20.8839 19.9247 21.8492C20.1468 21.3479 20.4063 20.8641 20.701 20.4017C21.3696 19.418 22.2961 18.6373 23.3789 18.145C24.422 17.6687 25.5621 17.4434 26.708 17.4871C25.6172 17.6539 24.573 18.046 23.642 18.6385C23.193 18.9206 22.7817 19.2589 22.4183 19.6451C22.0707 20.0311 21.7642 20.4523 21.5037 20.9018C21.0146 21.8413 20.6665 22.8478 20.4708 23.8888C20.2598 24.9332 20.1452 25.9947 20.1286 27.0601H21.4445C21.5064 26.1046 21.6361 25.1548 21.8327 24.2178C22.7455 24.7107 23.7692 24.9621 24.8066 24.9481C25.7741 24.9474 26.7316 24.7528 27.6226 24.3757C32.6295 22.2374 31.9715 15.1251 31.9715 14.829Z" fill="white"/>
<path d="M13.0196 16.0259L13.074 15.3159L13.6177 15.5413C14.5495 15.9439 15.5445 16.0675 16.5219 15.9019C17.549 15.7037 18.6002 15.8798 19.5485 16.409C20.0512 16.6752 20.4923 17.0936 20.8318 17.626C21.1713 18.1584 21.3983 18.788 21.4922 19.4574C21.6139 20.3222 21.553 21.2114 21.3155 22.0381C21.1625 21.6088 20.9838 21.1944 20.7808 20.7985C20.3204 19.956 19.6824 19.2873 18.9368 18.8658C18.2185 18.4579 17.4333 18.2649 16.6443 18.3023C17.3954 18.4451 18.1145 18.781 18.7556 19.2884C19.0648 19.53 19.348 19.8197 19.5983 20.1505C19.8377 20.4811 20.0487 20.8418 20.2281 21.2267C20.5649 22.0314 20.8046 22.8934 20.9394 23.7849C21.0847 24.6793 21.1636 25.5885 21.175 26.5008H20.2689C20.2263 25.6826 20.1369 24.8691 20.0015 24.0666C19.3729 24.4888 18.668 24.7041 17.9536 24.6921C17.2874 24.6915 16.628 24.5248 16.0145 24.2019C12.5666 22.3706 13.0196 16.2794 13.0196 16.0259Z" fill="white"/>
<rect x="16.2897" y="25.8429" width="9.86907" height="1.31588" fill="white"/>
<rect x="16.2897" y="29.7905" width="9.86907" height="1.31588" fill="white"/>
<rect x="14.9738" y="27.8167" width="9.86907" height="1.31588" fill="white"/>
</svg>
