<svg width="64" height="64" viewBox="0 0 64 64" fill="none" xmlns="http://www.w3.org/2000/svg">
<circle cx="32" cy="32" r="32" fill="white"/>
<path d="M32 21C25.9353 21 21 25.9341 21 32C21 38.0659 25.9353 43 32 43C38.0647 43 43 38.0659 43 32C43 25.9341 38.0647 21 32 21ZM40.5091 31.1139C38.3899 30.7666 36.221 30.8758 34.1474 31.4341C33.9274 30.9012 33.6793 30.3842 33.4263 29.866C35.1921 28.8563 36.7357 27.5002 37.9644 25.8791C39.4003 27.2717 40.301 29.1246 40.5091 31.1139ZM37.0478 25.1079C35.9229 26.6002 34.5092 27.8509 32.891 28.7856C31.927 27.0158 30.7769 25.3539 29.4602 23.8282C30.7365 23.43 32.0887 23.3383 33.407 23.5607C34.7254 23.783 35.9727 24.3131 37.0478 25.1079ZM28.2686 24.3134C29.6334 25.8516 30.8192 27.5397 31.8032 29.3453C29.2414 30.5358 26.3782 30.919 23.5936 30.4441C23.8397 29.128 24.3908 27.888 25.2026 26.8233C26.0145 25.7587 27.0645 24.8991 28.2686 24.3134ZM23.4444 32L23.4628 31.6407C24.289 31.7763 25.1164 31.8704 25.9366 31.8704C28.1506 31.861 30.3356 31.3657 32.3373 30.4197C32.5598 30.8756 32.7834 31.329 32.979 31.7971C29.9415 32.879 27.329 34.9027 25.5222 37.5733C24.1823 36.0257 23.4447 34.0471 23.4444 32ZM26.3692 38.4252C28.0663 35.8868 30.5369 33.9636 33.4141 32.9411C34.2542 35.2142 34.7853 37.5899 34.9932 40.0043C34.0369 40.367 33.0228 40.5538 32 40.5556C29.9261 40.5556 27.9237 39.798 26.3692 38.4252ZM36.1641 39.4666C35.9262 37.1152 35.3953 34.8027 34.5838 32.583C36.5283 32.0773 38.5592 31.9981 40.5372 32.3508C40.4774 33.8118 40.044 35.2331 39.2784 36.4788C38.5128 37.7246 37.4406 38.7533 36.1641 39.4666Z" fill="black"/>
</svg>
