<svg width="45" height="45" viewBox="0 0 45 45" fill="none" xmlns="http://www.w3.org/2000/svg">
<circle cx="22.5" cy="22.5" r="22.5" fill="#3185C8"/>
<path d="M28.8399 19.04V20.32C28.8399 22.7942 26.5835 24.8 23.7999 24.8H23.0799V25.44H26.6799V29.92C26.6799 30.6269 26.0352 31.2 25.2399 31.2H19.48C18.6847 31.2 18.04 30.6269 18.04 29.92V25.44H21.6399V23.52C21.6399 21.0458 23.8965 19.04 26.6799 19.04H28.8399ZM17.68 18.4C19.5006 18.4 21.1107 19.2009 22.0889 20.4279C21.3552 21.2869 20.92 22.3583 20.92 23.52V24.16H20.56C17.5776 24.16 15.16 22.011 15.16 19.36V18.4H17.68Z" fill="white"/>
<path d="M22 28.25C27.0801 28.25 31.25 24.5832 31.25 20C31.25 15.4168 27.0801 11.75 22 11.75C16.9199 11.75 12.75 15.4168 12.75 20C12.75 24.5832 16.9199 28.25 22 28.25Z" stroke="white" stroke-width="0.5"/>
</svg>
