<svg width="45" height="45" viewBox="0 0 45 45" fill="none" xmlns="http://www.w3.org/2000/svg">
<circle cx="22.5" cy="22.5" r="22.5" fill="#3185C8"/>
<path d="M31 20.925L30.8921 21.8945C30.3725 26.5616 27.5321 28.3914 24.3194 28.0337L23.3975 27.9311C23.6626 26.4822 24.2154 25.6492 25.5193 24.7313C26.1604 24.28 26.1444 23.9764 25.8376 24.1156C23.7269 25.073 22.5665 26.5558 22.2399 29.0931L22.2184 29.2722L21.2488 29.1643C21.3224 28.5037 21.4453 27.9099 21.6178 27.3738C21.5759 26.7341 21.6148 25.8763 21.7345 24.8013C22.0326 22.124 24.4446 20.1952 27.1219 20.4933C28.0914 20.6012 29.007 21.1939 31 20.925Z" fill="white"/>
<path d="M15.4504 18.2564L16.4179 18.5286C21.0753 19.8393 22.4592 23.0335 21.557 26.2397L21.2981 27.1596C19.8696 26.6472 19.1155 25.9455 18.401 24.4662C18.0497 23.7387 17.7384 23.7041 17.8284 24.0393C18.4478 26.3456 19.7607 27.7738 22.2853 28.5313L22.4638 28.5831L22.1915 29.5506C21.5323 29.3651 20.9493 29.1407 20.4333 28.8753C19.7758 28.8107 18.9104 28.6273 17.8376 28.3254C15.1659 27.5736 13.6095 24.7982 14.3613 22.1265C14.6336 21.159 15.3896 20.3276 15.4504 18.2564Z" fill="white"/>
<path d="M24.304 14L24.8666 14.8329C27.5749 18.8421 26.5677 22.1744 23.8078 24.0388L23.0158 24.5737C22.2565 23.2598 22.1341 22.2369 22.5445 20.6462C22.7462 19.8639 22.531 19.6364 22.3832 19.9505C21.3661 22.111 21.4455 24.0493 22.8832 26.2585L22.986 26.4133L22.1531 26.976C21.7697 26.4085 21.4698 25.8606 21.2473 25.3246C20.7872 24.8506 20.2451 24.1515 19.6212 23.228C18.0676 20.9281 18.6726 17.8041 20.9725 16.2505C21.8054 15.6879 22.9195 15.5417 24.304 14Z" fill="white"/>
</svg>
