<svg width="20" height="18" viewBox="0 0 20 18" fill="none" xmlns="http://www.w3.org/2000/svg">
<path d="M18 18C18.5305 18 19.0392 17.7893 19.4142 17.4142C19.7893 17.0391 20 16.5304 20 16V11.116C20 10.5856 19.7893 10.0769 19.4142 9.70179C19.0392 9.32671 18.5305 9.116 18 9.116H15.2241C15.2241 8.41333 15.2654 7.71067 15.3481 7.008C15.4721 6.264 15.6787 5.60267 15.9681 5.024C16.2574 4.44533 16.6301 3.99 17.0861 3.658C17.5394 3.286 18.118 3.1 18.822 3.1V0C17.6647 0 16.6514 0.248 15.7821 0.744C14.9188 1.23375 14.1771 1.91191 13.6121 2.728C13.0433 3.6263 12.6245 4.61117 12.3721 5.644C12.1169 6.78349 11.9921 7.94831 12.0001 9.116V16C12.0001 16.5304 12.2109 17.0391 12.5859 17.4142C12.961 17.7893 13.4697 18 14.0001 18H18ZM6.00026 18C6.53068 18 7.03938 17.7893 7.41444 17.4142C7.78951 17.0391 8.00022 16.5304 8.00022 16V11.116C8.00022 10.5856 7.78951 10.0769 7.41444 9.70179C7.03938 9.32671 6.53068 9.116 6.00026 9.116H3.22431C3.22431 8.41333 3.26564 7.71067 3.3483 7.008C3.47363 6.264 3.6803 5.60267 3.96829 5.024C4.25762 4.44533 4.63028 3.99 5.08627 3.658C5.5396 3.286 6.11825 3.1 6.82224 3.1V0C5.66493 0 4.65161 0.248 3.7823 0.744C2.919 1.23375 2.17727 1.91191 1.61234 2.728C1.04357 3.6263 0.624768 4.61117 0.372358 5.644C0.11713 6.78349 -0.00767038 7.94831 0.000364583 9.116V16C0.000364583 16.5304 0.211074 17.0391 0.58614 17.4142C0.961206 17.7893 1.4699 18 2.00033 18H6.00026Z" fill="#3185C8"/>
</svg>
