<svg width="75" height="74" viewBox="0 0 75 74" fill="none" xmlns="http://www.w3.org/2000/svg">
<path d="M41.1012 60.3401C41.173 52.9972 39.3114 47.026 36.9434 47.0028C34.5752 46.9797 32.5973 52.9135 32.5256 60.2562C32.4538 67.5991 34.3154 73.5705 36.6834 73.5935C39.0515 73.6167 41.0295 67.6829 41.1012 60.3401Z" fill="#FDFDFE"/>
<path d="M27.3671 58.6724C31.3976 52.5341 33.0602 46.5044 31.0807 45.2045C29.101 43.9047 24.2288 47.8269 20.1984 53.9652C16.1679 60.1034 14.5053 66.133 16.4848 67.433C18.4645 68.7329 23.3365 64.8106 27.3671 58.6724Z" fill="#FDFDFE"/>
<path d="M16.6986 49.8657C23.408 46.8813 28.0667 42.7079 27.1042 40.5441C26.1418 38.3802 19.9226 39.0455 13.2131 42.03C6.50377 45.0143 1.845 49.1877 2.80748 51.3516C3.76995 53.5154 9.98921 52.8501 16.6986 49.8657Z" fill="#FDFDFE"/>
<path d="M26.2989 34.476C26.6592 32.1354 21.0677 29.3324 13.8101 28.2152C6.55232 27.0981 0.376731 28.0901 0.0164754 30.4308C-0.343781 32.7714 5.24771 35.5743 12.5054 36.6914C19.7631 37.8085 25.9387 36.8165 26.2989 34.476Z" fill="#FDFDFE"/>
<path d="M28.9047 28.9C30.473 27.1256 27.2839 21.745 21.7816 16.8821C16.2794 12.0193 10.5476 9.51566 8.97931 11.2902C7.41102 13.0647 10.6001 18.4453 16.1024 23.3082C21.6047 28.1711 27.3365 30.6746 28.9047 28.9Z" fill="#FDFDFE"/>
<path d="M34.0941 25.6413C36.3728 24.9965 36.5992 18.7458 34.5999 11.6801C32.6005 4.61436 29.1324 -0.590823 26.8536 0.0539935C24.5749 0.69881 24.3485 6.94943 26.3479 14.0152C28.3472 21.0808 31.8154 26.2861 34.0941 25.6413Z" fill="#FDFDFE"/>
<path d="M48.1853 14.2351C50.3237 7.21014 50.2207 0.956248 47.9551 0.266632C45.6895 -0.423 42.1194 4.71277 39.981 11.7377C37.8427 18.7626 37.9458 25.0165 40.2114 25.7061C42.477 26.3957 46.0471 21.2601 48.1853 14.2351Z" fill="#FDFDFE"/>
<path d="M58.2541 23.7272C63.8504 18.9728 67.1442 13.6556 65.6108 11.8508C64.0775 10.046 58.2978 12.4372 52.7016 17.1914C47.1053 21.9458 43.8117 27.2631 45.345 29.0679C46.8783 30.8727 52.658 28.4816 58.2541 23.7272Z" fill="#FDFDFE"/>
<path d="M61.5834 37.1599C68.8618 36.1861 74.5074 33.494 74.1933 31.1466C73.8794 28.7994 67.7245 27.686 60.4461 28.6596C53.1679 29.6333 47.5221 32.3255 47.8362 34.6729C48.1503 37.0201 54.305 38.1337 61.5834 37.1599Z" fill="#FDFDFE"/>
<path d="M70.9725 52.0225C71.9775 49.8782 67.4019 45.6137 60.7527 42.4975C54.1035 39.3813 47.8986 38.5937 46.8936 40.738C45.8887 42.8825 50.4642 47.1469 57.1135 50.2631C63.7626 53.3791 69.9676 54.167 70.9725 52.0225Z" fill="#FDFDFE"/>
<path d="M56.9861 67.8447C58.9909 66.5842 57.4476 60.5228 53.5389 54.3063C49.6303 48.0898 44.8364 44.0724 42.8316 45.3328C40.8268 46.5933 42.3701 52.6548 46.2788 58.8712C50.1874 65.0877 54.9813 69.1053 56.9861 67.8447Z" fill="#FDFDFE"/>
</svg>
