<svg width="296" height="74" viewBox="0 0 296 74" fill="none" xmlns="http://www.w3.org/2000/svg">
<path d="M41.1012 60.34C41.173 52.9972 39.3114 47.026 36.9434 47.0028C34.5752 46.9797 32.5973 52.9135 32.5256 60.2562C32.4538 67.5991 34.3154 73.5704 36.6834 73.5935C39.0515 73.6167 41.0295 67.6829 41.1012 60.34Z" fill="#2B81C6"/>
<path d="M27.3671 58.6724C31.3976 52.5341 33.0602 46.5044 31.0807 45.2045C29.101 43.9047 24.2288 47.8269 20.1984 53.9652C16.1679 60.1034 14.5053 66.133 16.4848 67.433C18.4645 68.7329 23.3365 64.8106 27.3671 58.6724Z" fill="#2B81C6"/>
<path d="M16.6986 49.8657C23.408 46.8813 28.0667 42.7079 27.1042 40.5441C26.1418 38.3802 19.9226 39.0455 13.2131 42.03C6.50377 45.0143 1.845 49.1877 2.80748 51.3516C3.76995 53.5154 9.98921 52.8501 16.6986 49.8657Z" fill="#2B81C6"/>
<path d="M26.2989 34.476C26.6592 32.1354 21.0677 29.3324 13.8101 28.2152C6.55232 27.0981 0.376731 28.0901 0.0164754 30.4308C-0.343781 32.7714 5.24771 35.5743 12.5054 36.6914C19.7631 37.8085 25.9387 36.8165 26.2989 34.476Z" fill="#2B81C6"/>
<path d="M28.9047 28.9001C30.473 27.1257 27.2839 21.745 21.7816 16.8822C16.2794 12.0193 10.5476 9.51569 8.97931 11.2902C7.41102 13.0647 10.6001 18.4454 16.1024 23.3082C21.6047 28.1711 27.3365 30.6746 28.9047 28.9001Z" fill="#2B81C6"/>
<path d="M34.0941 25.6413C36.3728 24.9965 36.5992 18.7458 34.5999 11.6801C32.6005 4.61436 29.1324 -0.590823 26.8536 0.0539935C24.5749 0.69881 24.3485 6.94943 26.3479 14.0152C28.3472 21.0808 31.8154 26.2861 34.0941 25.6413Z" fill="#2B81C6"/>
<path d="M48.1853 14.2351C50.3237 7.21017 50.2207 0.956278 47.9551 0.266662C45.6895 -0.42297 42.1194 4.71281 39.981 11.7377C37.8427 18.7626 37.9458 25.0166 40.2114 25.7062C42.477 26.3958 46.0471 21.2601 48.1853 14.2351Z" fill="#2B81C6"/>
<path d="M58.2541 23.7272C63.8504 18.9728 67.1442 13.6555 65.6108 11.8508C64.0775 10.046 58.2978 12.4371 52.7016 17.1914C47.1053 21.9458 43.8117 27.263 45.345 29.0678C46.8783 30.8727 52.658 28.4816 58.2541 23.7272Z" fill="#2B81C6"/>
<path d="M61.5834 37.1599C68.8618 36.1861 74.5074 33.494 74.1933 31.1466C73.8794 28.7994 67.7245 27.686 60.4461 28.6596C53.1679 29.6333 47.5221 32.3255 47.8362 34.6729C48.1503 37.0201 54.305 38.1337 61.5834 37.1599Z" fill="#2B81C6"/>
<path d="M70.9725 52.0225C71.9775 49.8782 67.4019 45.6137 60.7527 42.4975C54.1035 39.3814 47.8986 38.5937 46.8936 40.738C45.8887 42.8825 50.4642 47.147 57.1135 50.2631C63.7626 53.3791 69.9676 54.167 70.9725 52.0225Z" fill="#2B81C6"/>
<path d="M56.9861 67.8447C58.9909 66.5842 57.4476 60.5228 53.5389 54.3063C49.6303 48.0898 44.8364 44.0724 42.8316 45.3329C40.8268 46.5934 42.3701 52.6548 46.2788 58.8713C50.1874 65.0878 54.9813 69.1054 56.9861 67.8447Z" fill="#2B81C6"/>
<path d="M117.728 24L112.8 15.296H110.688V24H106.208V1.664H114.592C116.32 1.664 117.792 1.97333 119.008 2.592C120.224 3.18933 121.131 4.01067 121.728 5.056C122.347 6.08 122.656 7.232 122.656 8.512C122.656 9.984 122.229 11.3173 121.376 12.512C120.523 13.6853 119.253 14.496 117.568 14.944L122.912 24H117.728ZM110.688 11.936H114.432C115.648 11.936 116.555 11.648 117.152 11.072C117.749 10.4747 118.048 9.65333 118.048 8.608C118.048 7.584 117.749 6.79467 117.152 6.24C116.555 5.664 115.648 5.376 114.432 5.376H110.688V11.936ZM128.948 5.28V10.88H136.468V14.432H128.948V20.352H137.428V24H124.468V1.632H137.428V5.28H128.948ZM158.363 24H153.883L143.739 8.672V24H139.259V1.632H143.739L153.883 16.992V1.632H158.363V24ZM165.03 5.28V10.88H172.55V14.432H165.03V20.352H173.51V24H160.55V1.632H173.51V5.28H165.03ZM205.198 1.664L198.958 24H193.678L189.486 8.096L185.102 24L179.854 24.032L173.838 1.664H178.638L182.574 19.008L187.118 1.664H192.11L196.398 18.912L200.366 1.664H205.198ZM219.579 19.744H210.683L209.211 24H204.507L212.539 1.632H217.755L225.787 24H221.051L219.579 19.744ZM218.363 16.16L215.131 6.816L211.899 16.16H218.363ZM239.221 12.544C240.48 12.7787 241.515 13.408 242.325 14.432C243.136 15.456 243.541 16.6293 243.541 17.952C243.541 19.1467 243.243 20.2027 242.645 21.12C242.069 22.016 241.227 22.72 240.117 23.232C239.008 23.744 237.696 24 236.181 24H226.549V1.664H235.765C237.28 1.664 238.581 1.90933 239.669 2.4C240.779 2.89067 241.611 3.57333 242.165 4.448C242.741 5.32267 243.029 6.31467 243.029 7.424C243.029 8.72533 242.677 9.81333 241.973 10.688C241.291 11.5627 240.373 12.1813 239.221 12.544ZM231.029 10.88H235.125C236.192 10.88 237.013 10.6453 237.589 10.176C238.165 9.68533 238.453 8.992 238.453 8.096C238.453 7.2 238.165 6.50667 237.589 6.016C237.013 5.52533 236.192 5.28 235.125 5.28H231.029V10.88ZM235.541 20.352C236.629 20.352 237.472 20.096 238.069 19.584C238.688 19.072 238.997 18.3467 238.997 17.408C238.997 16.448 238.677 15.7013 238.037 15.168C237.397 14.6133 236.533 14.336 235.445 14.336H231.029V20.352H235.541ZM249.352 20.448H256.712V24H244.872V1.664H249.352V20.448ZM261.799 5.28V10.88H269.319V14.432H261.799V20.352H270.279V24H257.319V1.632H270.279V5.28H261.799ZM110.688 53.28V58.88H118.208V62.432H110.688V68.352H119.168V72H106.208V49.632H119.168V53.28H110.688ZM140.103 72H135.623L125.479 56.672V72H120.999V49.632H125.479L135.623 64.992V49.632H140.103V72ZM146.771 53.28V58.88H154.291V62.432H146.771V68.352H155.251V72H142.291V49.632H155.251V53.28H146.771ZM168.602 72L163.674 63.296H161.562V72H157.082V49.664H165.466C167.194 49.664 168.666 49.9733 169.882 50.592C171.098 51.1893 172.004 52.0107 172.602 53.056C173.22 54.08 173.53 55.232 173.53 56.512C173.53 57.984 173.103 59.3173 172.25 60.512C171.396 61.6853 170.127 62.496 168.442 62.944L173.786 72H168.602ZM161.562 59.936H165.306C166.522 59.936 167.428 59.648 168.026 59.072C168.623 58.4747 168.922 57.6533 168.922 56.608C168.922 55.584 168.623 54.7947 168.026 54.24C167.428 53.664 166.522 53.376 165.306 53.376H161.562V59.936ZM190.894 56.384C190.382 55.4453 189.678 54.7307 188.782 54.24C187.886 53.7493 186.84 53.504 185.646 53.504C184.323 53.504 183.15 53.8027 182.126 54.4C181.102 54.9973 180.302 55.8507 179.726 56.96C179.15 58.0693 178.862 59.3493 178.862 60.8C178.862 62.2933 179.15 63.5947 179.726 64.704C180.323 65.8133 181.144 66.6667 182.19 67.264C183.235 67.8613 184.451 68.16 185.838 68.16C187.544 68.16 188.942 67.712 190.03 66.816C191.118 65.8987 191.832 64.6293 192.174 63.008H184.494V59.584H196.59V63.488C196.291 65.0453 195.651 66.4853 194.67 67.808C193.688 69.1307 192.419 70.1973 190.862 71.008C189.326 71.7973 187.598 72.192 185.678 72.192C183.523 72.192 181.571 71.712 179.822 70.752C178.094 69.7707 176.728 68.416 175.726 66.688C174.744 64.96 174.254 62.9973 174.254 60.8C174.254 58.6027 174.744 56.64 175.726 54.912C176.728 53.1627 178.094 51.808 179.822 50.848C181.571 49.8667 183.512 49.376 185.646 49.376C188.163 49.376 190.35 49.9947 192.206 51.232C194.062 52.448 195.342 54.1653 196.046 56.384H190.894ZM215.424 49.664L207.872 64.224V72H203.392V64.224L195.808 49.664H200.864L205.664 59.872L210.432 49.664H215.424Z" fill="#0C0C0C"/>
</svg>
